# xmcd
#
# Track frame offsets:
#	150
#	1790
#	11828
#	24154
#	39507
#	54608
#	64694
#	76500
#	94270
#	113892
#	122527
#	142537
#	157493
#	169742
#
# Disc length: 2283 seconds
#
# Revision: 0
# Processed by: cddbd v1.5.2PL0 Copyright (c) Steve Scherf et al.
# Submitted via: dBpowerAMP V4.0
#
DISCID=a108e90e
DTITLE=Surikhata trio - Svetla a stiny
DYEAR=1900
DGENRE=Blues
TTITLE0=Mas me tu celou
TTITLE1=Reinkarnacni
TTITLE2=Do roka
TTITLE3=Valcik chvile
TTITLE4=Blizenec
TTITLE5=Jeste ne
TTITLE6=Jsi tu
TTITLE7=Tam a zpatky
TTITLE8=Toulava kocka
TTITLE9=Dokola
TTITLE10=Trinacta komnata
TTITLE11=Zmrzly andel
TTITLE12=Trpeliva
TTITLE13=Pod vicky
EXTD=
EXTT0=
EXTT1=
EXTT2=
EXTT3=
EXTT4=
EXTT5=
EXTT6=
EXTT7=
EXTT8=
EXTT9=
EXTT10=
EXTT11=
EXTT12=
EXTT13=
PLAYORDER=
